<svg width="48" height="48" viewBox="0 0 48 48" fill="none" xmlns="http://www.w3.org/2000/svg">
<g filter="url(#filter0_d_111_1462)">
<rect x="6" y="4" width="36" height="36" rx="8" fill="#4A1583"/>
<path d="M26.5703 32C25.9974 32 25.5045 31.9415 25.0916 31.8245C24.6786 31.7075 24.3323 31.519 24.0525 31.259C23.7861 30.9859 23.5863 30.6349 23.453 30.2059C23.3332 29.7639 23.3558 29.1727 23.3558 28.5487V21.3806H25.6424V28.7459C25.6424 29.3829 25.658 29.6152 25.8711 29.8623C26.0843 30.0963 26.3971 30.1279 26.9699 30.1279C27.1164 30.1279 27.243 30.1279 27.3496 30.1279C27.5061 30.1279 27.5627 30.1263 27.6693 30.1133V31.9415C27.5627 31.9675 27.3895 31.9805 27.1497 31.9805C26.91 31.9935 26.7168 32 26.5703 32Z" fill="white"/>
<path d="M24.4984 12C28.0962 12 31.4061 12.8965 33.8518 14.4034C36.284 15.9021 37.9969 18.1064 37.9969 20.7133V20.7805C38.0039 20.8518 37.9969 20.8572 37.9969 20.9311H35.7471C35.7471 20.9242 35.7464 20.9051 35.7278 20.8667C35.7075 20.8249 35.6647 20.758 35.5782 20.6716C35.399 20.4926 35.0851 20.2818 34.6099 20.0811C33.663 19.681 32.2763 19.4063 30.6852 19.4063C29.0941 19.4063 27.7074 19.681 26.7605 20.0811C26.2853 20.2818 25.9714 20.4926 25.7922 20.6716C25.7057 20.758 25.6629 20.8249 25.6426 20.8667C25.624 20.9051 25.6233 20.9242 25.6233 20.9311H23.3736C23.3736 20.9242 23.3728 20.9051 23.3542 20.8667C23.334 20.8249 23.2911 20.758 23.2046 20.6716C23.0254 20.4926 22.7115 20.2818 22.2364 20.0811C21.2895 19.681 19.9028 19.4063 18.3116 19.4063C16.7205 19.4063 15.3338 19.681 14.3869 20.0811C13.9118 20.2818 13.5978 20.4926 13.4187 20.6716C13.3322 20.758 13.2893 20.8249 13.2691 20.8667C13.2505 20.9051 13.2497 20.9242 13.2497 20.9311H11C11 20.8572 11 20.7805 11 20.7805L11 20.7133C11 18.1064 12.7128 15.9021 15.1451 14.4034C17.5907 12.8965 20.9007 12 24.4984 12ZM24.4984 14.1783C21.2625 14.1783 18.3857 14.9887 16.353 16.2411C15.6177 16.6942 15.0104 17.1925 14.5337 17.719C15.6435 17.4021 16.9442 17.228 18.3116 17.228C20.1374 17.228 21.844 17.5384 23.1363 18.0844C23.6363 18.2957 24.1047 18.5555 24.4984 18.8698C24.8922 18.5555 25.3605 18.2957 25.8606 18.0844C27.1528 17.5384 28.8595 17.228 30.6852 17.228C32.0526 17.228 33.3532 17.4021 34.463 17.719C33.9863 17.1925 33.3791 16.6942 32.6438 16.2411C30.6111 14.9887 27.7344 14.1783 24.4984 14.1783Z" fill="white"/>
</g>
<defs>
<filter id="filter0_d_111_1462" x="0" y="0" width="48" height="48" filterUnits="userSpaceOnUse" color-interpolation-filters="sRGB">
<feFlood flood-opacity="0" result="BackgroundImageFix"/>
<feColorMatrix in="SourceAlpha" type="matrix" values="0 0 0 0 0 0 0 0 0 0 0 0 0 0 0 0 0 0 127 0" result="hardAlpha"/>
<feOffset dy="2"/>
<feGaussianBlur stdDeviation="3"/>
<feColorMatrix type="matrix" values="0 0 0 0 0 0 0 0 0 0 0 0 0 0 0 0 0 0 0.12 0"/>
<feBlend mode="normal" in2="BackgroundImageFix" result="effect1_dropShadow_111_1462"/>
<feBlend mode="normal" in="SourceGraphic" in2="effect1_dropShadow_111_1462" result="shape"/>
</filter>
</defs>
</svg>
