<svg width="56" height="56" viewBox="0 0 56 56" fill="none" xmlns="http://www.w3.org/2000/svg">
<path d="M31.1791 43.3423C30.3001 43.3423 29.5438 43.2502 28.9101 43.0661C28.2765 42.8824 27.745 42.5859 27.3158 42.177C26.9069 41.7474 26.6003 41.1955 26.3959 40.5208C26.212 39.8258 26.2468 38.896 26.2468 37.9147V26.6421H29.7553V38.2248C29.7553 39.2266 29.7792 39.5922 30.1063 39.9803C30.4334 40.3486 30.9133 40.398 31.7923 40.398C32.0171 40.398 32.2113 40.398 32.3748 40.398C32.6151 40.398 32.7019 40.3957 32.8654 40.3754V43.2502C32.7019 43.2912 32.4362 43.3116 32.0682 43.3116C31.7003 43.3319 31.4039 43.3423 31.1791 43.3423Z" fill="white" fill-opacity="0.85"/>
<path d="M27.9999 11.8906C33.5204 11.8906 38.5993 13.3004 42.352 15.6702C46.0841 18.0271 48.7123 21.4936 48.7123 25.5932V25.6988C48.723 25.811 48.7123 25.8196 48.7123 25.9357H45.2602C45.2602 25.9249 45.2591 25.8948 45.2307 25.8344C45.1996 25.7687 45.1336 25.6635 45.0009 25.5276C44.7259 25.2462 44.2445 24.9147 43.5154 24.5989C42.0624 23.9698 39.9344 23.5378 37.4931 23.5378C35.0516 23.5378 32.9238 23.9698 31.4709 24.5989C30.7418 24.9147 30.2601 25.2462 29.9852 25.5276C29.8525 25.6635 29.7867 25.7687 29.7556 25.8344C29.7271 25.8948 29.726 25.9249 29.726 25.9357H26.2739C26.2739 25.9249 26.2727 25.8948 26.2443 25.8344C26.2131 25.7687 26.1474 25.6635 26.0147 25.5276C25.7398 25.2462 25.2581 24.9147 24.529 24.5989C23.076 23.9698 20.9482 23.5378 18.5068 23.5378C16.0653 23.5378 13.9375 23.9698 12.4846 24.5989C11.7555 24.9147 11.2738 25.2462 10.9989 25.5276C10.8662 25.6635 10.8004 25.7687 10.7693 25.8344C10.7408 25.8948 10.7397 25.9249 10.7397 25.9357H7.2876C7.2876 25.8196 7.2876 25.6988 7.2876 25.6988V25.5932C7.2876 21.4936 9.91576 18.0271 13.6479 15.6702C17.4006 13.3004 22.4794 11.8906 27.9999 11.8906ZM27.9999 15.3163C23.0346 15.3163 18.6204 16.5906 15.5014 18.5603C14.3731 19.2728 13.4412 20.0563 12.7097 20.8843C14.4126 20.3859 16.4085 20.1122 18.5068 20.1122C21.3082 20.1122 23.9269 20.6004 25.9098 21.459C26.6771 21.7912 27.3958 22.1999 27.9999 22.6941C28.6041 22.1999 29.3228 21.7912 30.09 21.459C32.0729 20.6004 34.6917 20.1122 37.4931 20.1122C39.5912 20.1122 41.5868 20.386 43.2898 20.8843C42.5584 20.0564 41.6267 19.2728 40.4983 18.5603C37.3794 16.5906 32.9652 15.3163 27.9999 15.3163Z" fill="white" fill-opacity="0.85"/>
</svg>
